<svg xmlns="http://www.w3.org/2000/svg" viewBox="0 0 1280 340" width="1280" height="340" role="img" aria-label="Jyn. Your todos, captured at the speed of typing.">
  <defs>
    <linearGradient id="holo" gradientUnits="userSpaceOnUse" x1="853" y1="0" x2="1280" y2="340"><stop offset="0%" stop-color="#5fe3d2"/><stop offset="20%" stop-color="#7db4ff"/><stop offset="40%" stop-color="#c39bff"/><stop offset="58%" stop-color="#ff8fd2"/><stop offset="78%" stop-color="#8fe9f7"/><stop offset="100%" stop-color="#b9beff"/></linearGradient>
    <linearGradient id="tg" gradientUnits="userSpaceOnUse" x1="72" y1="228" x2="487" y2="274"><stop offset="0%" stop-color="#5fe3d2"/><stop offset="22%" stop-color="#7db4ff"/><stop offset="44%" stop-color="#c39bff"/><stop offset="64%" stop-color="#ff8fd2"/><stop offset="84%" stop-color="#8fe9f7"/><stop offset="100%" stop-color="#b9beff"/></linearGradient>
    <filter id="blur" x="-60%" y="-60%" width="220%" height="220%"><feGaussianBlur stdDeviation="60"/></filter>
    <filter id="shadow" x="-10%" y="-20%" width="130%" height="140%">
      <feDropShadow dx="14" dy="0" stdDeviation="14" flood-color="#000" flood-opacity="0.75"/>
    </filter>
    <clipPath id="clip"><rect width="1280" height="340" rx="16"/></clipPath>
  </defs>
  <g clip-path="url(#clip)">
    <rect width="1280" height="340" fill="url(#holo)"/>
    <g filter="url(#blur)" opacity="0.9"><circle cx="900" cy="20" r="170" fill="#5fe3d2"/><circle cx="1080" cy="300" r="190" fill="#c39bff"/><circle cx="1250" cy="60" r="170" fill="#ff8fd2"/><circle cx="930" cy="330" r="130" fill="#7db4ff"/><circle cx="1280" cy="330" r="140" fill="#8fe9f7"/></g>
    <g stroke="rgba(10,10,11,0.34)" stroke-width="1" fill="none"><path d="M850 0V340"/><path d="M884 0V340"/><path d="M918 0V340"/><path d="M952 0V340"/><path d="M986 0V340"/><path d="M1020 0V340"/><path d="M1054 0V340"/><path d="M1088 0V340"/><path d="M1122 0V340"/><path d="M1156 0V340"/><path d="M1190 0V340"/><path d="M1224 0V340"/><path d="M1258 0V340"/><path d="M853 0H1280"/><path d="M853 34H1280"/><path d="M853 68H1280"/><path d="M853 102H1280"/><path d="M853 136H1280"/><path d="M853 170H1280"/><path d="M853 204H1280"/><path d="M853 238H1280"/><path d="M853 272H1280"/><path d="M853 306H1280"/><path d="M853 340H1280"/></g>
    <path d="M-40 -40H1044.1L833.3 380H-40Z" fill="#0a0a0b" filter="url(#shadow)"/>
    <svg x="72" y="70" width="46" height="46" viewBox="0 0 64 64">
<defs>
<radialGradient id="lg-ctr" cx="50%" cy="50%" r="55%"><stop offset="0" stop-color="#ffffff" stop-opacity="0.55"/><stop offset="0.6" stop-color="#ffffff" stop-opacity="0"/></radialGradient>
<clipPath id="lg-disc"><circle cx="32" cy="32" r="30"/></clipPath>
<filter id="lg-soft"><feGaussianBlur stdDeviation="1.57"/></filter>
</defs>
<g clip-path="url(#lg-disc)"><g filter="url(#lg-soft)"><path d="M32 32 L32.00 2.00 A30 30 0 0 1 37.21 2.46 Z" fill="rgb(142, 232, 221)"/><path d="M32 32 L37.21 2.46 A30 30 0 0 1 42.26 3.81 Z" fill="rgb(146, 228, 227)"/><path d="M32 32 L42.26 3.81 A30 30 0 0 1 47.00 6.02 Z" fill="rgb(151, 225, 232)"/><path d="M32 32 L47.00 6.02 A30 30 0 0 1 51.28 9.02 Z" fill="rgb(156, 221, 238)"/><path d="M32 32 L51.28 9.02 A30 30 0 0 1 54.98 12.72 Z" fill="rgb(160, 217, 244)"/><path d="M32 32 L54.98 12.72 A30 30 0 0 1 57.98 17.00 Z" fill="rgb(164, 214, 249)"/><path d="M32 32 L57.98 17.00 A30 30 0 0 1 60.19 21.74 Z" fill="rgb(169, 210, 255)"/><path d="M32 32 L60.19 21.74 A30 30 0 0 1 61.54 26.79 Z" fill="rgb(176, 207, 255)"/><path d="M32 32 L61.54 26.79 A30 30 0 0 1 62.00 32.00 Z" fill="rgb(183, 205, 255)"/><path d="M32 32 L62.00 32.00 A30 30 0 0 1 61.54 37.21 Z" fill="rgb(190, 202, 255)"/><path d="M32 32 L61.54 37.21 A30 30 0 0 1 60.19 42.26 Z" fill="rgb(198, 199, 255)"/><path d="M32 32 L60.19 42.26 A30 30 0 0 1 57.98 47.00 Z" fill="rgb(205, 197, 255)"/><path d="M32 32 L57.98 47.00 A30 30 0 0 1 54.98 51.28 Z" fill="rgb(212, 194, 255)"/><path d="M32 32 L54.98 51.28 A30 30 0 0 1 51.28 54.98 Z" fill="rgb(219, 194, 251)"/><path d="M32 32 L51.28 54.98 A30 30 0 0 1 47.00 57.98 Z" fill="rgb(226, 193, 247)"/><path d="M32 32 L47.00 57.98 A30 30 0 0 1 42.26 60.19 Z" fill="rgb(234, 193, 242)"/><path d="M32 32 L42.26 60.19 A30 30 0 0 1 37.21 61.54 Z" fill="rgb(241, 193, 238)"/><path d="M32 32 L37.21 61.54 A30 30 0 0 1 32.00 62.00 Z" fill="rgb(248, 192, 234)"/><path d="M32 32 L32.00 62.00 A30 30 0 0 1 26.79 61.54 Z" fill="rgb(255, 192, 230)"/><path d="M32 32 L26.79 61.54 A30 30 0 0 1 21.74 60.19 Z" fill="rgb(244, 200, 233)"/><path d="M32 32 L21.74 60.19 A30 30 0 0 1 17.00 57.98 Z" fill="rgb(233, 207, 236)"/><path d="M32 32 L17.00 57.98 A30 30 0 0 1 12.72 54.98 Z" fill="rgb(222, 215, 238)"/><path d="M32 32 L12.72 54.98 A30 30 0 0 1 9.02 51.28 Z" fill="rgb(211, 223, 241)"/><path d="M32 32 L9.02 51.28 A30 30 0 0 1 6.02 47.00 Z" fill="rgb(200, 230, 244)"/><path d="M32 32 L6.02 47.00 A30 30 0 0 1 3.81 42.26 Z" fill="rgb(189, 238, 247)"/><path d="M32 32 L3.81 42.26 A30 30 0 0 1 2.46 37.21 Z" fill="rgb(194, 236, 248)"/><path d="M32 32 L2.46 37.21 A30 30 0 0 1 2.00 32.00 Z" fill="rgb(199, 233, 250)"/><path d="M32 32 L2.00 32.00 A30 30 0 0 1 2.46 26.79 Z" fill="rgb(204, 230, 251)"/><path d="M32 32 L2.46 26.79 A30 30 0 0 1 3.81 21.74 Z" fill="rgb(210, 228, 252)"/><path d="M32 32 L3.81 21.74 A30 30 0 0 1 6.02 17.00 Z" fill="rgb(215, 226, 254)"/><path d="M32 32 L6.02 17.00 A30 30 0 0 1 9.02 12.72 Z" fill="rgb(220, 223, 255)"/><path d="M32 32 L9.02 12.72 A30 30 0 0 1 12.72 9.02 Z" fill="rgb(207, 224, 249)"/><path d="M32 32 L12.72 9.02 A30 30 0 0 1 17.00 6.02 Z" fill="rgb(194, 226, 244)"/><path d="M32 32 L17.00 6.02 A30 30 0 0 1 21.74 3.81 Z" fill="rgb(181, 228, 238)"/><path d="M32 32 L21.74 3.81 A30 30 0 0 1 26.79 2.46 Z" fill="rgb(168, 229, 232)"/><path d="M32 32 L26.79 2.46 A30 30 0 0 1 32.00 2.00 Z" fill="rgb(155, 230, 227)"/></g><circle cx="32" cy="32" r="30" fill="url(#lg-ctr)"/></g>
<g fill="none" stroke="#101216" stroke-width="4.29" stroke-linecap="round">
<path d="M16.29 26.29 Q22.71 19.14 29.14 26.29"/>
<path d="M34.86 26.29 Q41.29 19.14 47.71 26.29"/>
<path d="M16.29 37.71 Q32.00 53.43 47.71 37.71"/>
</g>
</svg>
    <path d="M131.1 106.5Q128.8 106.5 127.1 105.5Q125.5 104.5 124.6 102.7Q123.7 100.9 123.6 98.6L127.6 98.4Q127.6 100.8 128.5 101.9Q129.5 103.1 131.1 103.1Q132.8 103.1 133.7 101.9Q134.7 100.7 134.7 98.4V84.7H138.6V98.4Q138.6 100.9 137.6 102.7Q136.7 104.5 135 105.5Q133.4 106.5 131.1 106.5ZM143.1 110.5V107.5H145.2Q146 107.5 146.4 107.3Q146.7 107 146.9 106.5L147.4 105.4H146.3L140.5 90H144.5L148.6 101.8L152.4 90H156.4L150.1 107.7Q149.6 109.2 148.6 109.8Q147.6 110.5 145.9 110.5ZM158.5 106V90H162L162.1 94.5L161.7 94.3Q161.9 92.6 162.7 91.6Q163.4 90.6 164.5 90.1Q165.6 89.6 166.9 89.6Q168.7 89.6 169.9 90.4Q171.1 91.2 171.7 92.5Q172.3 93.9 172.3 95.7V106H168.5V96.9Q168.5 95.6 168.2 94.7Q168 93.7 167.4 93.2Q166.7 92.7 165.7 92.7Q164.2 92.7 163.3 93.8Q162.4 94.9 162.4 96.9V106Z" fill="#f4f4f5"/>
    <rect x="196" y="84" width="1" height="26" fill="rgba(244,244,245,0.18)"/>
    <path d="M219.5 106.2V105.1H222Q222.6 105.1 222.9 104.9Q223.2 104.6 223.2 103.9V96.5L223.8 97.2H219.6V96H224.4V104Q224.4 105.1 223.9 105.7Q223.4 106.2 222.2 106.2ZM223.1 94.8V93.3H224.4V94.8ZM231.6 104.2Q230.5 104.2 229.7 103.7Q228.9 103.2 228.5 102.2Q228 101.3 228 100Q228 98.8 228.5 97.8Q228.9 96.9 229.7 96.4Q230.5 95.9 231.6 95.9Q232.7 95.9 233.6 96.4Q234.4 96.9 234.8 97.8Q235.3 98.8 235.3 100Q235.3 101.3 234.8 102.2Q234.4 103.2 233.6 103.7Q232.7 104.2 231.6 104.2ZM231.6 103Q232.7 103 233.3 102.2Q234 101.4 234 100Q234 98.6 233.3 97.9Q232.7 97.1 231.6 97.1Q230.5 97.1 229.9 97.9Q229.3 98.6 229.3 100Q229.3 101.4 229.9 102.2Q230.5 103 231.6 103ZM238.5 106.2V105.1H239.4Q239.8 105.1 240 105Q240.2 104.9 240.3 104.6L240.6 103.8H240.2L237.2 96H238.6L241 102.7L243.3 96H244.7L241.4 105Q241.2 105.7 240.8 106Q240.3 106.2 239.5 106.2ZM246.9 104V102.9H250.1V96.5L250.8 97.2H247.1V96H251.4V102.9H254.1V104H251.4H250.1ZM250 94.8V93.3H251.3V94.8ZM256.3 104V96H257.5L257.5 98.1L257.4 97.9Q257.5 97.2 257.9 96.8Q258.3 96.3 258.9 96.1Q259.4 95.9 260 95.9Q260.9 95.9 261.5 96.3Q262.2 96.7 262.5 97.4Q262.8 98 262.8 98.9V104H261.5V99.2Q261.5 98.1 261.1 97.6Q260.7 97 259.8 97Q259.1 97 258.6 97.2Q258.1 97.5 257.9 98Q257.6 98.5 257.6 99.2V104ZM270 104Q268.9 104 268.3 103.5Q267.7 102.9 267.7 101.8V94.2H269V101.8Q269 102.4 269.2 102.6Q269.5 102.9 270 102.9H272.1V104ZM265.1 97.2V96H272.1V97.2ZM277.2 104V102.2H279.1V104ZM287.7 104.2Q286.5 104.2 285.7 103.7Q284.9 103.2 284.4 102.2Q284 101.3 284 100Q284 98.8 284.4 97.8Q284.9 96.9 285.7 96.4Q286.5 95.9 287.7 95.9Q288.5 95.9 289.2 96.2Q289.9 96.5 290.4 97.1Q290.8 97.7 291 98.6L289.7 98.7Q289.5 97.9 288.9 97.5Q288.4 97.1 287.7 97.1Q286.6 97.1 285.9 97.9Q285.3 98.6 285.3 100Q285.3 101.4 285.9 102.2Q286.6 103 287.7 103Q288.4 103 289 102.5Q289.5 102.1 289.7 101.2L291 101.3Q290.9 102.2 290.4 102.8Q289.9 103.5 289.2 103.8Q288.5 104.2 287.7 104.2ZM296.7 104.2Q295.6 104.2 294.8 103.7Q294 103.2 293.6 102.2Q293.1 101.3 293.1 100Q293.1 98.8 293.6 97.8Q294 96.9 294.8 96.4Q295.6 95.9 296.7 95.9Q297.8 95.9 298.7 96.4Q299.5 96.9 299.9 97.8Q300.4 98.8 300.4 100Q300.4 101.3 299.9 102.2Q299.5 103.2 298.7 103.7Q297.8 104.2 296.7 104.2ZM296.7 103Q297.8 103 298.4 102.2Q299.1 101.4 299.1 100Q299.1 98.6 298.4 97.9Q297.8 97.1 296.7 97.1Q295.6 97.1 295 97.9Q294.4 98.6 294.4 100Q294.4 101.4 295 102.2Q295.6 103 296.7 103ZM302.1 104V96H303.3L303.3 97.8L303.2 97.8Q303.3 96.9 303.8 96.4Q304.2 95.9 304.9 95.9Q305.6 95.9 306 96.4Q306.4 96.9 306.5 97.9H306.3Q306.4 97 306.9 96.4Q307.4 95.9 308.1 95.9Q309.1 95.9 309.5 96.5Q309.9 97.2 309.9 98.7V104H308.7V98.9Q308.7 97.8 308.5 97.4Q308.2 97 307.8 97Q307.4 97 307.2 97.2Q307 97.4 306.8 97.8Q306.7 98.3 306.7 98.9V104H305.4V98.9Q305.4 97.9 305.2 97.4Q305 97 304.5 97Q304.2 97 303.9 97.2Q303.7 97.4 303.5 97.8Q303.4 98.3 303.4 98.9V104ZM312.5 105.7 317 92.8H318.2L313.7 105.7ZM321.8 106.2V105.1H324.3Q324.9 105.1 325.2 104.9Q325.5 104.6 325.5 103.9V96.5L326.1 97.2H321.9V96H326.7V104Q326.7 105.1 326.2 105.7Q325.7 106.2 324.5 106.2ZM325.4 94.8V93.3H326.7V94.8ZM331.5 106.2V105.1H332.4Q332.8 105.1 333 105Q333.2 104.9 333.3 104.6L333.6 103.8H333.2L330.2 96H331.6L334 102.7L336.3 96H337.7L334.4 105Q334.2 105.7 333.8 106Q333.3 106.2 332.5 106.2ZM340 104V96H341.2L341.2 98.1L341.1 97.9Q341.2 97.2 341.6 96.8Q342 96.3 342.6 96.1Q343.1 95.9 343.7 95.9Q344.6 95.9 345.2 96.3Q345.9 96.7 346.2 97.4Q346.5 98 346.5 98.9V104H345.2V99.2Q345.2 98.1 344.8 97.6Q344.4 97 343.5 97Q342.8 97 342.3 97.2Q341.8 97.5 341.6 98Q341.3 98.5 341.3 99.2V104Z" fill="rgba(244,244,245,0.64)"/>
    <path d="M83.1 212V199.1L71.7 179.3H78.4L86.1 193.2L93.8 179.3H100.5L89.1 199.1V212ZM112.6 212.6Q109 212.6 106.3 211Q103.5 209.4 102 206.5Q100.5 203.6 100.5 199.7Q100.5 195.8 102 192.9Q103.5 190.1 106.3 188.5Q109 186.9 112.6 186.9Q116.2 186.9 119 188.5Q121.7 190.1 123.2 192.9Q124.7 195.8 124.7 199.7Q124.7 203.6 123.2 206.5Q121.7 209.4 119 211Q116.2 212.6 112.6 212.6ZM112.6 207.8Q115.5 207.8 117 205.7Q118.6 203.5 118.6 199.7Q118.6 195.9 117 193.8Q115.5 191.6 112.6 191.6Q109.8 191.6 108.2 193.8Q106.6 195.9 106.6 199.7Q106.6 203.5 108.2 205.7Q109.8 207.8 112.6 207.8ZM136.3 212.6Q132.6 212.6 130.4 210.1Q128.2 207.6 128.2 203.3V187.4H134.1V201.8Q134.1 204.9 135.1 206.3Q136.2 207.8 138.3 207.8Q140.7 207.8 142 206.2Q143.3 204.6 143.3 201.6V187.4H149.2V212H143.8L143.7 205.3L144.4 205.5Q143.8 209 141.8 210.8Q139.7 212.6 136.3 212.6ZM154.2 212V187.4H159.7L159.9 194.3L159.5 194.1Q160 190.6 161.5 189Q163.1 187.4 165.7 187.4H168V192.5H165.7Q163.8 192.5 162.6 193Q161.4 193.6 160.7 194.8Q160.1 195.9 160.1 197.9V212ZM190.8 212Q187.1 212 185.4 210.3Q183.6 208.6 183.6 205V181.7H189.5V204.4Q189.5 206.1 190.3 206.8Q191 207.4 192.6 207.4H196V212ZM179.8 192V187.4H196V192ZM209.8 212.6Q206.1 212.6 203.4 211Q200.7 209.4 199.2 206.5Q197.7 203.6 197.7 199.7Q197.7 195.8 199.2 192.9Q200.7 190.1 203.4 188.5Q206.1 186.9 209.8 186.9Q213.4 186.9 216.1 188.5Q218.8 190.1 220.3 192.9Q221.8 195.8 221.8 199.7Q221.8 203.6 220.3 206.5Q218.8 209.4 216.1 211Q213.4 212.6 209.8 212.6ZM209.8 207.8Q212.6 207.8 214.2 205.7Q215.7 203.5 215.7 199.7Q215.7 195.9 214.2 193.8Q212.6 191.6 209.8 191.6Q206.9 191.6 205.3 193.8Q203.8 195.9 203.8 199.7Q203.8 203.5 205.3 205.7Q206.9 207.8 209.8 207.8ZM234.1 212.6Q231 212.6 228.7 211Q226.4 209.4 225.2 206.5Q223.9 203.6 223.9 199.7Q223.9 195.8 225.2 192.9Q226.4 190 228.7 188.5Q231 186.9 234.1 186.9Q236.7 186.9 238.6 187.9Q240.6 189 241.6 190.9V179.3H247.5V212H241.9L241.8 208.4Q240.7 210.3 238.7 211.4Q236.7 212.6 234.1 212.6ZM235.9 207.8Q237.7 207.8 239 206.8Q240.3 205.9 240.9 204.1Q241.6 202.3 241.6 199.7Q241.6 197.1 240.9 195.3Q240.3 193.5 239 192.6Q237.7 191.6 235.9 191.6Q233.2 191.6 231.6 193.8Q230 196 230 199.7Q230 203.4 231.6 205.6Q233.2 207.8 235.9 207.8ZM263.1 212.6Q259.5 212.6 256.8 211Q254 209.4 252.5 206.5Q251 203.6 251 199.7Q251 195.8 252.5 192.9Q254 190.1 256.8 188.5Q259.5 186.9 263.1 186.9Q266.8 186.9 269.5 188.5Q272.2 190.1 273.7 192.9Q275.2 195.8 275.2 199.7Q275.2 203.6 273.7 206.5Q272.2 209.4 269.5 211Q266.8 212.6 263.1 212.6ZM263.1 207.8Q266 207.8 267.5 205.7Q269.1 203.5 269.1 199.7Q269.1 195.9 267.5 193.8Q266 191.6 263.1 191.6Q260.3 191.6 258.7 193.8Q257.1 195.9 257.1 199.7Q257.1 203.5 258.7 205.7Q260.3 207.8 263.1 207.8ZM288.7 212.6Q285 212.6 282.5 211.5Q280 210.4 278.8 208.5Q277.5 206.7 277.3 204.3L283.3 204Q283.7 205.9 284.9 207Q286.1 208.1 288.7 208.1Q290.8 208.1 291.9 207.4Q293 206.7 293 205.3Q293 204.4 292.6 203.9Q292.2 203.3 291.1 202.9Q290 202.5 287.8 202.1Q284.1 201.5 281.9 200.5Q279.8 199.6 279 198.1Q278.1 196.7 278.1 194.6Q278.1 191.2 280.8 189Q283.4 186.9 288.5 186.9Q292.1 186.9 294.4 188Q296.6 189.1 297.8 191Q299 192.9 299.1 195.1L293.2 195.4Q293.1 194.3 292.6 193.4Q292.1 192.4 291.1 191.9Q290.1 191.4 288.4 191.4Q286.4 191.4 285.3 192.2Q284.2 193 284.2 194.4Q284.2 195.4 284.6 196Q285.1 196.7 286.1 197.1Q287.2 197.5 289 197.8Q292.8 198.3 295 199.3Q297.2 200.3 298.2 201.7Q299.1 203.1 299.1 205.2Q299.1 208.7 296.3 210.6Q293.5 212.6 288.7 212.6ZM301.7 219.2 304.1 212H301.3V205.6H308V211.3L304.9 219.2ZM331.6 212.6Q328 212.6 325.2 211Q322.5 209.4 321 206.5Q319.5 203.6 319.5 199.7Q319.5 195.8 321 193Q322.5 190.1 325.2 188.5Q328 186.9 331.6 186.9Q334.7 186.9 337.2 188Q339.6 189.1 341.2 191.1Q342.7 193.2 343.1 196.1L337 196.5Q336.6 194.1 335.2 192.9Q333.7 191.7 331.6 191.7Q328.8 191.7 327.2 193.8Q325.6 195.9 325.6 199.7Q325.6 203.5 327.2 205.7Q328.8 207.8 331.6 207.8Q333.8 207.8 335.2 206.5Q336.7 205.3 337 202.7L343.1 202.9Q342.7 205.9 341.2 208Q339.7 210.2 337.2 211.4Q334.8 212.6 331.6 212.6ZM353.3 212.6Q349.4 212.6 347.1 210.8Q344.7 209 344.7 205.9Q344.7 202.7 346.7 200.9Q348.7 199.1 352.7 198.3L360.9 196.7Q360.9 194.1 359.7 192.8Q358.5 191.4 356.2 191.4Q354 191.4 352.8 192.4Q351.6 193.4 351.1 195.3L345.2 195Q345.9 191.1 348.7 189Q351.6 186.9 356.2 186.9Q361.4 186.9 364.1 189.5Q366.8 192.2 366.8 197.1V206Q366.8 207 367.1 207.4Q367.4 207.7 368.1 207.7H368.9V212Q368.6 212.1 368 212.1Q367.4 212.2 366.8 212.2Q365.3 212.2 364.1 211.7Q362.9 211.2 362.2 210Q361.6 208.8 361.6 206.7L362.1 207Q361.7 208.7 360.5 209.9Q359.3 211.2 357.4 211.9Q355.6 212.6 353.3 212.6ZM354.5 208.3Q356.4 208.3 357.9 207.5Q359.3 206.7 360.1 205.3Q360.9 203.9 360.9 202.1V200.7L354.5 202Q352.6 202.4 351.7 203.2Q350.8 204 350.8 205.3Q350.8 206.7 351.8 207.5Q352.7 208.3 354.5 208.3ZM371.4 218.9V187.4H377L377.1 192.7L376.6 192.4Q377.5 189.7 379.6 188.3Q381.7 186.9 384.5 186.9Q388 186.9 390.3 188.6Q392.6 190.4 393.8 193.3Q394.9 196.2 394.9 199.7Q394.9 203.2 393.7 206.2Q392.6 209.1 390.3 210.8Q387.9 212.6 384.4 212.6Q382.6 212.6 381 211.9Q379.4 211.2 378.3 210.1Q377.2 208.9 376.7 207.3L377.3 206.8V218.9ZM383.1 207.8Q385.7 207.8 387.3 205.6Q388.8 203.5 388.8 199.7Q388.8 195.9 387.3 193.8Q385.7 191.6 383.1 191.6Q381.3 191.6 380 192.6Q378.7 193.5 378 195.3Q377.3 197.1 377.3 199.7Q377.3 202.4 378 204.2Q378.7 206 380 206.9Q381.3 207.8 383.1 207.8ZM408.3 212Q404.6 212 402.9 210.3Q401.2 208.6 401.2 205V181.7H407.1V204.4Q407.1 206.1 407.8 206.8Q408.6 207.4 410.1 207.4H413.6V212ZM397.3 192V187.4H413.6V192ZM424.7 212.6Q421 212.6 418.8 210.1Q416.7 207.6 416.7 203.3V187.4H422.5V201.8Q422.5 204.9 423.6 206.3Q424.6 207.8 426.7 207.8Q429.1 207.8 430.4 206.2Q431.7 204.6 431.7 201.6V187.4H437.6V212H432.2L432.1 205.3L432.8 205.5Q432.3 209 430.2 210.8Q428.1 212.6 424.7 212.6ZM442.6 212V187.4H448.1L448.4 194.3L447.9 194.1Q448.4 190.6 450 189Q451.5 187.4 454.1 187.4H456.4V192.5H454.1Q452.2 192.5 451 193Q449.8 193.6 449.1 194.8Q448.5 195.9 448.5 197.9V212ZM470.6 212.6Q466.9 212.6 464.2 211Q461.5 209.4 460 206.5Q458.5 203.6 458.5 199.7Q458.5 195.8 460 193Q461.5 190.1 464.2 188.5Q466.8 186.9 470.5 186.9Q474 186.9 476.6 188.5Q479.2 190 480.7 193Q482.1 195.9 482.1 200V201.4H464.7Q464.8 204.6 466.4 206.2Q468 207.8 470.6 207.8Q472.6 207.8 473.9 207Q475.2 206.1 475.7 204.5L481.8 204.8Q480.8 208.4 477.8 210.5Q474.8 212.6 470.6 212.6ZM464.7 197.4H476Q475.8 194.4 474.3 193Q472.8 191.5 470.5 191.5Q468.1 191.5 466.6 193Q465 194.5 464.7 197.4ZM494.4 212.6Q491.3 212.6 489 211Q486.7 209.4 485.5 206.5Q484.3 203.6 484.3 199.7Q484.3 195.8 485.5 192.9Q486.7 190 489 188.5Q491.3 186.9 494.4 186.9Q497 186.9 499 187.9Q500.9 189 501.9 190.9V179.3H507.8V212H502.2L502.1 208.4Q501.1 210.3 499 211.4Q497 212.6 494.4 212.6ZM496.2 207.8Q498 207.8 499.3 206.8Q500.6 205.9 501.2 204.1Q501.9 202.3 501.9 199.7Q501.9 197.1 501.2 195.3Q500.6 193.5 499.3 192.6Q498 191.6 496.2 191.6Q493.5 191.6 491.9 193.8Q490.4 196 490.4 199.7Q490.4 203.4 491.9 205.6Q493.5 207.8 496.2 207.8ZM529.3 212.6Q525.4 212.6 523.1 210.8Q520.7 209 520.7 205.9Q520.7 202.7 522.7 200.9Q524.7 199.1 528.7 198.3L536.9 196.7Q536.9 194.1 535.7 192.8Q534.5 191.4 532.2 191.4Q530 191.4 528.8 192.4Q527.6 193.4 527.1 195.3L521.2 195Q521.9 191.1 524.7 189Q527.6 186.9 532.2 186.9Q537.4 186.9 540.1 189.5Q542.8 192.2 542.8 197.1V206Q542.8 207 543.1 207.4Q543.4 207.7 544.1 207.7H544.9V212Q544.6 212.1 544 212.1Q543.4 212.2 542.8 212.2Q541.3 212.2 540.1 211.7Q538.9 211.2 538.2 210Q537.5 208.8 537.5 206.7L538.1 207Q537.7 208.7 536.5 209.9Q535.3 211.2 533.4 211.9Q531.6 212.6 529.3 212.6ZM530.5 208.3Q532.4 208.3 533.9 207.5Q535.3 206.7 536.1 205.3Q536.9 203.9 536.9 202.1V200.7L530.5 202Q528.6 202.4 527.7 203.2Q526.8 204 526.8 205.3Q526.8 206.7 527.8 207.5Q528.7 208.3 530.5 208.3ZM557.2 212Q553.5 212 551.8 210.3Q550.1 208.6 550.1 205V181.7H556V204.4Q556 206.1 556.7 206.8Q557.5 207.4 559 207.4H562.5V212ZM546.2 192V187.4H562.5V192Z" fill="#f4f4f5"/>
    <path d="M85 266Q81.4 266 79.7 264.3Q77.9 262.6 77.9 259V235.7H83.8V258.4Q83.8 260.1 84.6 260.8Q85.3 261.4 86.8 261.4H90.3V266ZM74.1 246V241.4H90.3V246ZM93.4 266V233.3H99.3V247.1L98.5 247Q98.9 244.9 100 243.6Q101.1 242.2 102.7 241.6Q104.4 240.9 106.3 240.9Q109 240.9 110.8 242.1Q112.7 243.2 113.6 245.4Q114.6 247.5 114.6 250.2V266H108.7V251.7Q108.7 248.6 107.7 247.2Q106.7 245.7 104.5 245.7Q102.1 245.7 100.7 247.2Q99.3 248.8 99.3 251.8V266ZM130.2 266.6Q126.5 266.6 123.8 265Q121.1 263.4 119.6 260.5Q118.1 257.6 118.1 253.7Q118.1 249.8 119.6 247Q121.1 244.1 123.8 242.5Q126.4 240.9 130.1 240.9Q133.6 240.9 136.2 242.5Q138.8 244 140.3 247Q141.7 249.9 141.7 254V255.4H124.3Q124.4 258.6 126 260.2Q127.6 261.8 130.2 261.8Q132.2 261.8 133.5 261Q134.8 260.1 135.3 258.5L141.4 258.8Q140.4 262.4 137.4 264.5Q134.4 266.6 130.2 266.6ZM124.3 251.4H135.6Q135.4 248.4 133.9 247Q132.4 245.5 130.1 245.5Q127.7 245.5 126.2 247Q124.6 248.5 124.3 251.4ZM164.7 266.6Q160.9 266.6 158.4 265.5Q156 264.4 154.7 262.5Q153.4 260.7 153.2 258.3L159.3 258Q159.6 259.9 160.8 261Q162 262.1 164.7 262.1Q166.7 262.1 167.8 261.4Q168.9 260.7 168.9 259.3Q168.9 258.4 168.5 257.9Q168.2 257.3 167 256.9Q165.9 256.5 163.7 256.1Q160 255.5 157.9 254.5Q155.8 253.6 154.9 252.1Q154.1 250.7 154.1 248.6Q154.1 245.2 156.7 243Q159.4 240.9 164.5 240.9Q168 240.9 170.3 242Q172.6 243.1 173.7 245Q174.9 246.9 175.1 249.1L169.1 249.4Q169.1 248.3 168.6 247.4Q168 246.4 167 245.9Q166 245.4 164.4 245.4Q162.3 245.4 161.2 246.2Q160.2 247 160.2 248.4Q160.2 249.4 160.6 250Q161 250.7 162.1 251.1Q163.1 251.5 165 251.8Q168.7 252.3 171 253.3Q173.2 254.3 174.1 255.7Q175 257.1 175 259.2Q175 262.7 172.2 264.6Q169.4 266.6 164.7 266.6ZM178.6 272.9V241.4H184.3L184.4 246.7L183.8 246.4Q184.8 243.7 186.8 242.3Q188.9 240.9 191.7 240.9Q195.2 240.9 197.5 242.6Q199.9 244.4 201 247.3Q202.2 250.2 202.2 253.7Q202.2 257.2 201 260.2Q199.8 263.1 197.5 264.8Q195.2 266.6 191.7 266.6Q189.9 266.6 188.3 265.9Q186.7 265.2 185.6 264.1Q184.4 262.9 184 261.3L184.5 260.8V272.9ZM190.3 261.8Q193 261.8 194.5 259.6Q196.1 257.5 196.1 253.7Q196.1 249.9 194.5 247.8Q193 245.6 190.3 245.6Q188.5 245.6 187.2 246.6Q185.9 247.5 185.2 249.3Q184.5 251.1 184.5 253.7Q184.5 256.4 185.2 258.2Q185.9 260 187.2 260.9Q188.5 261.8 190.3 261.8ZM216.3 266.6Q212.7 266.6 210 265Q207.3 263.4 205.8 260.5Q204.3 257.6 204.3 253.7Q204.3 249.8 205.8 247Q207.3 244.1 209.9 242.5Q212.6 240.9 216.2 240.9Q219.7 240.9 222.4 242.5Q225 244 226.4 247Q227.9 249.9 227.9 254V255.4H210.4Q210.6 258.6 212.2 260.2Q213.8 261.8 216.4 261.8Q218.4 261.8 219.7 261Q221 260.1 221.5 258.5L227.5 258.8Q226.5 262.4 223.6 264.5Q220.6 266.6 216.3 266.6ZM210.4 251.4H221.8Q221.6 248.4 220.1 247Q218.6 245.5 216.2 245.5Q213.9 245.5 212.3 247Q210.8 248.5 210.4 251.4ZM242 266.6Q238.4 266.6 235.7 265Q233 263.4 231.5 260.5Q230 257.6 230 253.7Q230 249.8 231.5 247Q233 244.1 235.6 242.5Q238.3 240.9 241.9 240.9Q245.4 240.9 248.1 242.5Q250.7 244 252.1 247Q253.6 249.9 253.6 254V255.4H236.1Q236.3 258.6 237.9 260.2Q239.5 261.8 242.1 261.8Q244.1 261.8 245.4 261Q246.7 260.1 247.2 258.5L253.2 258.8Q252.2 262.4 249.3 264.5Q246.3 266.6 242 266.6ZM236.1 251.4H247.5Q247.3 248.4 245.8 247Q244.3 245.5 241.9 245.5Q239.6 245.5 238 247Q236.5 248.5 236.1 251.4ZM265.9 266.6Q262.8 266.6 260.5 265Q258.2 263.4 257 260.5Q255.7 257.6 255.7 253.7Q255.7 249.8 257 246.9Q258.2 244 260.5 242.5Q262.8 240.9 265.9 240.9Q268.5 240.9 270.4 241.9Q272.4 243 273.4 244.9V233.3H279.3V266H273.7L273.5 262.4Q272.5 264.3 270.5 265.4Q268.5 266.6 265.9 266.6ZM267.7 261.8Q269.5 261.8 270.8 260.8Q272 259.9 272.7 258.1Q273.4 256.3 273.4 253.7Q273.4 251.1 272.7 249.3Q272 247.5 270.8 246.6Q269.5 245.6 267.7 245.6Q265 245.6 263.4 247.8Q261.8 250 261.8 253.7Q261.8 257.4 263.4 259.6Q265 261.8 267.7 261.8ZM304.3 266.6Q300.7 266.6 297.9 265Q295.2 263.4 293.7 260.5Q292.2 257.6 292.2 253.7Q292.2 249.8 293.7 246.9Q295.2 244.1 297.9 242.5Q300.7 240.9 304.3 240.9Q307.9 240.9 310.6 242.5Q313.3 244.1 314.8 246.9Q316.3 249.8 316.3 253.7Q316.3 257.6 314.8 260.5Q313.3 263.4 310.6 265Q307.9 266.6 304.3 266.6ZM304.3 261.8Q307.1 261.8 308.7 259.7Q310.3 257.5 310.3 253.7Q310.3 249.9 308.7 247.8Q307.1 245.6 304.3 245.6Q301.4 245.6 299.9 247.8Q298.3 249.9 298.3 253.7Q298.3 257.5 299.9 259.7Q301.4 261.8 304.3 261.8ZM322.5 266V240.5Q322.5 237.2 324.3 235.2Q326.2 233.3 330.1 233.3H334.9V237.9H331.2Q329.7 237.9 329.1 238.7Q328.4 239.4 328.4 240.8V266ZM319 246V241.4H334.5V246ZM357.4 266Q353.7 266 352 264.3Q350.3 262.6 350.3 259V235.7H356.1V258.4Q356.1 260.1 356.9 260.8Q357.6 261.4 359.2 261.4H362.6V266ZM346.4 246V241.4H362.6V246ZM367.4 272.9V268.3H370.6Q371.8 268.3 372.4 268Q373 267.6 373.3 266.7L373.9 265H372.2L363.5 241.4H369.6L375.8 259.5L381.6 241.4H387.7L378.1 268.6Q377.3 270.9 375.8 271.9Q374.3 272.9 371.6 272.9ZM390.5 272.9V241.4H396.1L396.2 246.7L395.7 246.4Q396.6 243.7 398.7 242.3Q400.8 240.9 403.6 240.9Q407.1 240.9 409.4 242.6Q411.7 244.4 412.8 247.3Q414 250.2 414 253.7Q414 257.2 412.8 260.2Q411.7 263.1 409.4 264.8Q407 266.6 403.5 266.6Q401.7 266.6 400.1 265.9Q398.5 265.2 397.4 264.1Q396.3 262.9 395.8 261.3L396.4 260.8V272.9ZM402.1 261.8Q404.8 261.8 406.4 259.6Q407.9 257.5 407.9 253.7Q407.9 249.9 406.4 247.8Q404.8 245.6 402.1 245.6Q400.4 245.6 399.1 246.6Q397.8 247.5 397.1 249.3Q396.4 251.1 396.4 253.7Q396.4 256.4 397.1 258.2Q397.7 260 399.1 260.9Q400.4 261.8 402.1 261.8ZM417.6 266V241.4H423.5V266ZM417.5 238.2V232.9H423.6V238.2ZM428.5 266V241.4H433.8L434 248.3L433.3 248Q433.7 245.5 434.8 243.9Q436 242.3 437.6 241.6Q439.3 240.9 441.3 240.9Q444 240.9 445.9 242.1Q447.7 243.3 448.7 245.4Q449.6 247.4 449.6 250.2V266H443.8V252.1Q443.8 250 443.4 248.6Q443 247.2 442 246.4Q441.1 245.7 439.5 245.7Q437.1 245.7 435.7 247.3Q434.4 249 434.4 252.1V266ZM465.1 273.5Q461.9 273.5 459.6 272.6Q457.3 271.7 455.9 270.1Q454.5 268.5 453.9 266.5L460 266.1Q460.5 267.4 461.6 268.2Q462.7 269 465.1 269Q467.8 269 469.3 267.8Q470.8 266.6 470.8 264V260.9Q469.9 262.7 468 263.7Q466 264.8 463.7 264.8Q460.6 264.8 458.2 263.3Q455.9 261.8 454.5 259.1Q453.2 256.4 453.2 252.9Q453.2 249.3 454.5 246.6Q455.8 244 458.2 242.4Q460.5 240.9 463.5 240.9Q466.2 240.9 468.1 242.1Q470.1 243.3 471 245.3V241.4H476.7V263.8Q476.7 267 475.3 269.1Q473.8 271.3 471.2 272.4Q468.6 273.5 465.1 273.5ZM465 260.2Q467.7 260.2 469.2 258.2Q470.8 256.3 470.8 252.8Q470.8 250.5 470.1 248.9Q469.4 247.3 468.1 246.4Q466.8 245.5 465 245.5Q462.3 245.5 460.8 247.5Q459.3 249.5 459.3 252.8Q459.3 256.2 460.9 258.2Q462.4 260.2 465 260.2ZM480.3 266V259.6H487V266Z" fill="url(#tg)"/>
  </g>
  <rect x="0.5" y="0.5" width="1279" height="339" rx="15.5" fill="none" stroke="rgba(244,244,245,0.18)"/>
</svg>
